<svg width="50" height="50" viewBox="0 0 50 50" fill="none" xmlns="http://www.w3.org/2000/svg">
<path d="M49.0293 12.4686C48.4035 11.8428 47.5716 11.4982 46.6856 11.4982C44.8587 11.4982 43.3727 12.9844 43.3727 14.8111V26.7939C42.8535 26.9213 42.3619 27.1677 41.9462 27.5287L35.1398 33.4404C32.2327 35.9653 30.5654 39.6217 30.5654 43.4721V49.0227C30.5654 49.5619 31.0026 49.9992 31.542 49.9992C32.0813 49.9992 32.5186 49.5619 32.5186 49.0227V43.4721C32.5186 40.1876 33.9407 37.0687 36.4205 34.915L43.2268 29.0033C43.6514 28.6347 44.2593 28.5403 44.7755 28.7632C45.1882 28.9412 45.4931 29.2921 45.6118 29.7255C45.7307 30.159 45.6474 30.6162 45.3832 30.9799L39.6527 38.8695C39.3358 39.3059 39.4326 39.9166 39.869 40.2335C40.3054 40.5504 40.9161 40.4536 41.233 40.0173L46.9635 32.1278C47.5781 31.2816 47.7721 30.2178 47.4955 29.2093C47.219 28.2006 46.5097 27.3844 45.5494 26.9699C45.4756 26.9381 45.4009 26.9091 45.3256 26.8828V14.8111C45.3256 14.0613 45.9357 13.4512 46.6866 13.4512C47.0499 13.4512 47.3914 13.5927 47.6483 13.8495C47.9051 14.1064 48.0466 14.448 48.0466 14.8113L48.0465 17.8709C48.0465 18.4103 48.4837 18.8475 49.0231 18.8475C49.5623 18.8475 49.9996 18.4103 49.9996 17.8709L49.9997 14.8113C49.9996 13.9263 49.6551 13.0944 49.0293 12.4686Z" fill="#252222"/>
<path d="M49.0225 24.0233C48.4832 24.0233 48.046 24.4605 48.046 24.9999L48.0454 35.2912C48.0453 37.415 47.4584 39.4945 46.3483 41.305L41.9289 48.5125C41.6469 48.9722 41.7911 49.5735 42.2508 49.8555C42.4101 49.9532 42.5864 49.9997 42.7604 49.9997C43.0889 49.9997 43.4096 49.8341 43.5939 49.5336L48.0133 42.3261C49.3119 40.2081 49.9984 37.7757 49.9986 35.2915L49.9992 25C49.9991 24.4605 49.5619 24.0233 49.0225 24.0233Z" fill="#252222"/>
<path d="M49.7129 20.4833C49.5322 20.3007 49.2803 20.1971 49.0234 20.1971C48.7656 20.1971 48.5137 20.3007 48.332 20.4833C48.1504 20.6649 48.0459 20.9159 48.0459 21.1737C48.0459 21.4305 48.1504 21.6825 48.332 21.8641C48.5137 22.0458 48.7656 22.1503 49.0234 22.1503C49.2803 22.1503 49.5312 22.0458 49.7129 21.8641C49.8955 21.6825 50 21.4305 50 21.1737C50 20.9159 49.8955 20.6649 49.7129 20.4833Z" fill="#252222"/>
<path d="M14.8598 33.4404L8.05342 27.5287C7.6377 27.1677 7.14609 26.9213 6.62705 26.7938V14.8111C6.62705 12.9842 5.14082 11.4982 3.31299 11.4982C2.42803 11.4982 1.596 11.8428 0.970313 12.4686C0.344531 13.0943 0 13.9263 0 14.8112L0.00107422 35.2909C0.00117188 37.7751 0.687695 40.2076 1.98633 42.3256L6.40566 49.5331C6.58994 49.8336 6.91065 49.9993 7.23906 49.9992C7.41309 49.9992 7.58936 49.9527 7.74863 49.8551C8.2084 49.5731 8.35264 48.9718 8.07061 48.512L3.65127 41.3046C2.54111 39.4941 1.9543 37.4146 1.9542 35.2908L1.95313 14.8111C1.95313 14.4478 2.09453 14.1063 2.35146 13.8494C2.6083 13.5926 2.94981 13.4511 3.31416 13.4511C4.06397 13.4511 4.67402 14.0612 4.67402 14.811V26.8826C4.59873 26.909 4.52402 26.9379 4.4502 26.9698C3.48994 27.3842 2.78066 28.2004 2.5041 29.209C2.22754 30.2176 2.42148 31.2815 3.03613 32.1276L8.7667 40.0171C9.08369 40.4535 9.69443 40.5503 10.1308 40.2333C10.5671 39.9164 10.6639 39.3057 10.347 38.8693L4.61641 30.9797C4.35225 30.616 4.26895 30.1589 4.38779 29.7253C4.50664 29.2919 4.81152 28.941 5.22422 28.763C5.74043 28.5401 6.34834 28.6344 6.77285 29.0031L13.5792 34.9148C16.059 37.0686 17.4812 40.1874 17.4812 43.4719V49.0225C17.4812 49.5617 17.9184 49.9991 18.4577 49.9991C18.9971 49.9991 19.4343 49.5617 19.4343 49.0225V43.4719C19.434 39.6217 17.7667 35.9653 14.8598 33.4404Z" fill="#252222"/>
<path d="M39.1151 9.0545C38.1735 7.42354 36.653 6.25704 34.834 5.76954C33.015 5.28204 31.1151 5.53233 29.4839 6.47384C27.853 7.41553 26.6865 8.93585 26.199 10.7549C25.8992 11.8732 25.8096 13.0241 25.9325 14.1755L26.0341 15.1261C26.256 17.2042 26.0943 19.2814 25.5532 21.3006L25.5401 21.3499C25.179 22.6973 25.3643 24.1045 26.0617 25.3125C26.7592 26.5205 27.8853 27.3847 29.2325 27.7456C29.6882 27.8677 30.1472 27.9267 30.6003 27.9267C32.3659 27.9266 34.0359 27.0297 35.011 25.4716C37.1498 22.0537 38.7633 18.3459 39.8069 14.4513L39.8194 14.4046C40.3069 12.5855 40.0568 10.6855 39.1151 9.0545ZM37.9327 13.8992L37.9202 13.9459C36.9269 17.6529 35.3909 21.1822 33.3551 24.4356C32.5881 25.6611 31.1347 26.2333 29.7379 25.8592C28.8947 25.633 28.1898 25.0921 27.7531 24.3359C27.3165 23.5797 27.2006 22.6987 27.4267 21.8549L27.4399 21.8056C28.0433 19.5537 28.2237 17.2367 27.9761 14.9186L27.8745 13.968C27.7772 13.0565 27.8481 12.1455 28.0854 11.2604C28.6949 8.98555 30.7596 7.48175 33.0102 7.48175C33.4456 7.48175 33.8882 7.53809 34.3283 7.65606C37.0434 8.3835 38.6602 11.1841 37.9327 13.8992Z" fill="#252222"/>
<path d="M34.6963 2.19165C34.5146 2.01001 34.2637 1.90649 34.0059 1.90649C33.749 1.90649 33.4971 2.01001 33.3154 2.19165C33.1338 2.37329 33.0293 2.62524 33.0293 2.88208C33.0293 3.13989 33.1338 3.39087 33.3154 3.57251C33.4971 3.75513 33.749 3.85864 34.0059 3.85864C34.2637 3.85864 34.5146 3.75513 34.6963 3.57251C34.8789 3.39087 34.9824 3.13989 34.9824 2.88208C34.9824 2.62524 34.8789 2.37329 34.6963 2.19165Z" fill="#252222"/>
<path d="M37.8867 3.2572C37.7051 3.07556 37.4531 2.97107 37.1963 2.97107C36.9395 2.97107 36.6875 3.07556 36.5059 3.2572C36.3242 3.43884 36.2197 3.6908 36.2197 3.94763C36.2197 4.20544 36.3242 4.45642 36.5059 4.63806C36.6875 4.82068 36.9395 4.92419 37.1963 4.92419C37.4531 4.92419 37.7051 4.82068 37.8867 4.63806C38.0684 4.45642 38.1729 4.20544 38.1729 3.94763C38.1729 3.6908 38.0684 3.43884 37.8867 3.2572Z" fill="#252222"/>
<path d="M40.1265 5.21802C39.9448 5.0354 39.6929 4.93188 39.436 4.93188C39.1782 4.93188 38.9272 5.0354 38.7456 5.21802C38.564 5.39966 38.4595 5.65063 38.4595 5.90845C38.4595 6.16528 38.564 6.41724 38.7456 6.59888C38.9272 6.78052 39.1782 6.88501 39.436 6.88501C39.6929 6.88501 39.9448 6.78052 40.1265 6.59888C40.3081 6.41724 40.4126 6.16528 40.4126 5.90845C40.4126 5.65063 40.3081 5.39966 40.1265 5.21802Z" fill="#252222"/>
<path d="M41.8267 7.97559C41.646 7.79297 41.394 7.68945 41.1362 7.68945C40.8794 7.68945 40.6274 7.79297 40.4458 7.97559C40.2642 8.15625 40.1597 8.4082 40.1597 8.66602C40.1597 8.92275 40.2642 9.17471 40.4458 9.35645C40.6274 9.53809 40.8794 9.64258 41.1362 9.64258C41.394 9.64258 41.645 9.53809 41.8267 9.35645C42.0093 9.17383 42.1128 8.92285 42.1128 8.66602C42.1128 8.4082 42.0093 8.15723 41.8267 7.97559Z" fill="#252222"/>
<path d="M31.8359 1.8525C31.4793 0.521832 30.1067 -0.270453 28.7761 0.0858947C28.1315 0.258649 27.5927 0.672027 27.2591 1.24996C26.9254 1.82789 26.8369 2.50123 27.0095 3.14576C27.1821 3.79039 27.5956 4.32916 28.1735 4.66285C28.5584 4.88511 28.9856 4.99869 29.4186 4.99859C29.6356 4.99859 29.854 4.97007 30.0694 4.91236C30.714 4.73961 31.2528 4.32623 31.5864 3.7483C31.92 3.17037 32.0086 2.49703 31.8359 1.8525ZM29.8948 2.77164C29.8219 2.89781 29.7043 2.98795 29.5636 3.02574C29.4229 3.06353 29.2759 3.0441 29.1499 2.97125C29.0238 2.89839 28.9336 2.78082 28.8958 2.64009C28.8581 2.49957 28.8775 2.35259 28.9503 2.22652C29.0232 2.10035 29.1408 2.01021 29.2815 1.97242C29.3286 1.95982 29.3758 1.95377 29.4224 1.95377C29.6631 1.95377 29.884 2.1147 29.9493 2.35796C29.987 2.49859 29.9676 2.64556 29.8948 2.77164Z" fill="#252222"/>
<path d="M24.4588 25.7984L24.4453 25.7477C23.9044 23.7292 23.7427 21.6519 23.9646 19.5738L24.0661 18.6232C24.1891 17.4717 24.0995 16.3209 23.7997 15.2026C22.7935 11.4475 18.92 9.211 15.1648 10.2173C13.3457 10.7047 11.8253 11.8714 10.8837 13.5022C9.942 15.1332 9.6919 17.0332 10.1793 18.8521L10.1919 18.8991C11.2356 22.7937 12.849 26.5015 14.9879 29.9193C15.963 31.4775 17.6327 32.3745 19.3983 32.3745C19.8514 32.3745 20.3107 32.3155 20.7661 32.1934C22.1135 31.8325 23.2396 30.9683 23.9369 29.7604C24.6343 28.5525 24.8196 27.1452 24.4588 25.7984ZM22.2456 28.7837C21.809 29.5399 21.1041 30.0807 20.2607 30.3068C18.8643 30.6809 17.4106 30.109 16.6436 28.8833C14.6077 25.63 13.0719 22.1007 12.0785 18.3937L12.0659 18.3467C11.3385 15.6319 12.9554 12.8312 15.6703 12.1038C16.1095 11.9861 16.5552 11.9279 16.998 11.9279C17.8812 11.9279 18.7529 12.1595 19.5383 12.6131C20.7175 13.2938 21.5608 14.3931 21.9133 15.7083C22.1506 16.5934 22.2215 17.5045 22.1241 18.4158L22.0226 19.3664C21.775 21.6845 21.9554 24.0015 22.5586 26.2527L22.5721 26.3031C22.7981 27.1465 22.682 28.0274 22.2456 28.7837Z" fill="#252222"/>
<path d="M16.6831 6.63977C16.5015 6.45715 16.2495 6.35364 15.9927 6.35364C15.7358 6.35364 15.4839 6.45715 15.3022 6.63977C15.1206 6.82141 15.0161 7.07239 15.0161 7.3302C15.0161 7.58704 15.1206 7.83801 15.3022 8.02063C15.4839 8.20217 15.7358 8.30676 15.9927 8.30676C16.2495 8.30676 16.5015 8.20227 16.6831 8.02063C16.8647 7.83801 16.9692 7.58704 16.9692 7.3302C16.9692 7.07239 16.8647 6.82141 16.6831 6.63977Z" fill="#252222"/>
<path d="M13.4927 7.70422C13.311 7.52258 13.0591 7.41809 12.8022 7.41809C12.5454 7.41809 12.2935 7.52258 12.1118 7.70422C11.9302 7.88586 11.8257 8.13782 11.8257 8.39465C11.8257 8.65247 11.9302 8.90344 12.1118 9.08606C12.2935 9.2677 12.5454 9.37219 12.8022 9.37219C13.0591 9.37219 13.311 9.2677 13.4927 9.08606C13.6743 8.90344 13.7788 8.65247 13.7788 8.39465C13.7788 8.13782 13.6743 7.88684 13.4927 7.70422Z" fill="#252222"/>
<path d="M11.2539 9.66528C11.0723 9.48364 10.8203 9.37915 10.5635 9.37915C10.3066 9.37915 10.0547 9.48364 9.87305 9.66528C9.69141 9.84692 9.58691 10.0989 9.58691 10.3557C9.58691 10.6125 9.69141 10.8645 9.87305 11.0461C10.0547 11.2277 10.3066 11.3323 10.5635 11.3323C10.8203 11.3323 11.0723 11.2278 11.2539 11.0461C11.4355 10.8645 11.54 10.6125 11.54 10.3557C11.54 10.0989 11.4355 9.84692 11.2539 9.66528Z" fill="#252222"/>
<path d="M9.55371 12.4231C9.37207 12.2405 9.12012 12.137 8.86328 12.137C8.60645 12.137 8.35449 12.2405 8.17285 12.4231C7.99023 12.6047 7.88672 12.8567 7.88672 13.1135C7.88672 13.3704 7.99023 13.6223 8.17285 13.804C8.35449 13.9856 8.60645 14.0901 8.86328 14.0901C9.12012 14.0901 9.37207 13.9856 9.55371 13.804C9.73535 13.6223 9.83984 13.3704 9.83984 13.1135C9.83984 12.8567 9.73535 12.6047 9.55371 12.4231Z" fill="#252222"/>
<path d="M22.7401 5.69726C22.4064 5.11933 21.8677 4.70585 21.2231 4.53319C19.8925 4.17655 18.5199 4.96923 18.1634 6.29979C17.9906 6.94442 18.0793 7.61766 18.413 8.19569C18.7467 8.77352 19.2854 9.1869 19.93 9.35966C20.1452 9.41737 20.3637 9.44589 20.5807 9.44589C21.0136 9.44589 21.4408 9.33231 21.8258 9.11005C22.4037 8.77636 22.8171 8.23759 22.9898 7.59306C23.1625 6.94852 23.0738 6.27519 22.7401 5.69726ZM21.1033 7.08749C21.0656 7.22821 20.9754 7.34579 20.8492 7.41864C20.723 7.4914 20.5761 7.51073 20.4355 7.47313C20.2948 7.43544 20.1772 7.3452 20.1044 7.21903C20.0315 7.09286 20.0123 6.94599 20.0499 6.80526C20.1151 6.5619 20.336 6.40097 20.5767 6.40097C20.6233 6.40097 20.6706 6.40702 20.7177 6.41962C20.8584 6.45731 20.976 6.54755 21.0488 6.67372C21.1217 6.79989 21.1409 6.94677 21.1033 7.08749Z" fill="#252222"/>
<path d="M12.4092 41.9847C12.2275 41.8031 11.9756 41.6986 11.7188 41.6986C11.4619 41.6986 11.21 41.803 11.0283 41.9847C10.8467 42.1664 10.7422 42.4183 10.7422 42.6752C10.7422 42.932 10.8467 43.184 11.0283 43.3655C11.21 43.5471 11.4619 43.6517 11.7188 43.6517C11.9756 43.6517 12.2275 43.5472 12.4092 43.3655C12.5908 43.184 12.6953 42.932 12.6953 42.6752C12.6952 42.4183 12.5907 42.1664 12.4092 41.9847Z" fill="#252222"/>
</svg>
