<svg width="50" height="50" viewBox="0 0 50 50" fill="none" xmlns="http://www.w3.org/2000/svg">
<g clip-path="url(#clip0)">
<path d="M36.274 49.9999C35.8495 49.9999 35.4208 49.983 34.9879 49.949C30.7067 49.6124 26.5557 47.6338 23.2997 44.3778C23.0137 44.0918 23.0137 43.628 23.2997 43.3421C23.5857 43.056 24.0495 43.056 24.3354 43.3421C27.345 46.3517 31.169 48.1795 35.1028 48.4887C38.9923 48.7941 42.5248 47.5741 45.047 45.0518C47.5692 42.5296 48.7898 38.998 48.484 35.1075C48.39 33.9131 48.1562 32.7288 47.7917 31.5743C43.5007 31.7508 38.882 34.0744 34.4108 36.3237C30.2962 38.3935 26.0584 40.5255 22.0048 41.0115L22.2786 41.2854C22.5646 41.5714 22.5646 42.0352 22.2786 42.3211C21.9926 42.6071 21.5288 42.6071 21.2429 42.3211L8.10682 29.1849C8.10545 29.1836 8.10438 29.1824 8.10301 29.181C8.10281 29.1808 8.10252 29.1805 8.10233 29.1803L5.61654 26.6945C-1.13626 19.9418 -1.90324 9.72134 3.90671 3.91129C5.68314 2.13486 7.96229 0.901683 10.4977 0.345151C10.8838 0.26068 11.2674 0.497297 11.3647 0.880395C11.5417 1.57823 11.6045 2.34052 11.5659 3.1199C12.1141 3.04256 12.6716 3.01336 13.2353 3.03367C15.674 3.12185 17.9344 4.13941 19.6622 5.91448C20.6763 5.54359 21.9909 5.9675 22.9296 7.05274C23.4473 7.65136 23.769 8.36872 23.8352 9.07281C23.8828 9.57896 23.7928 10.0535 23.5829 10.4477C25.8552 13.4203 26.0079 17.1777 24.1186 20.3407C24.829 20.0475 25.5231 19.7327 26.2367 19.409C28.8861 18.2076 31.6159 16.9697 35.6915 16.6942L25.654 6.65684C22.3519 3.35466 18.0115 1.46476 13.736 1.46476C13.7116 1.46476 13.6879 1.46476 13.6634 1.46495C13.6622 1.46495 13.661 1.46495 13.6597 1.46495C13.2569 1.46495 12.9294 1.13947 12.9273 0.736257C12.9253 0.331772 13.2515 0.00218898 13.656 0.000138235C18.3432 -0.0267167 23.0942 2.02549 26.6899 5.62112L39.9321 18.8632C40.2181 19.1493 40.2181 19.613 39.9321 19.899C39.6459 20.1851 39.1822 20.1849 38.8963 19.899L37.1017 18.1044C32.5424 18.1578 29.7722 19.4142 26.8417 20.7431C25.4457 21.3761 24.003 22.0305 22.3699 22.532C20.4575 24.3832 18.144 25.3204 15.8484 25.3206C13.9978 25.3207 12.1588 24.7117 10.5494 23.4813C10.1552 23.6913 9.68101 23.7813 9.17447 23.7336C8.47048 23.6673 7.75302 23.3456 7.15449 22.8277C6.06936 21.889 5.64544 20.5744 6.01653 19.5602C4.24146 17.8321 3.22381 15.5716 3.13572 13.1329C3.03895 10.4521 4.06735 7.89393 6.03157 5.92971C6.63292 5.32835 7.01192 4.25045 7.00352 3.31394C6.25559 3.77878 5.564 4.32554 4.94262 4.94701C2.42041 7.46923 1.19982 11.0009 1.50568 14.8914C1.81495 18.8252 3.64275 22.6491 6.65236 25.6587L9.14381 28.1502C15.3006 34.3023 21.5957 31.2639 28.885 27.7461L28.9892 27.6958C29.3538 27.5201 29.7915 27.6728 29.9672 28.0372C30.143 28.4014 29.9902 28.8393 29.6259 29.0151L29.5217 29.0654C25.7831 30.8696 22.252 32.5737 18.7165 33.0288C16.9242 33.2595 15.243 33.1391 13.6552 32.6616L20.6393 39.6456C24.754 39.5421 29.1276 37.3419 33.7529 35.0151C38.2078 32.774 42.8049 30.4615 47.2645 30.1373C46.4165 28.1168 45.1607 26.2186 43.5516 24.5576C39.5621 24.6313 35.7601 26.1431 32.2408 27.7715C31.8735 27.9415 31.4384 27.7814 31.2686 27.4144C31.0988 27.0473 31.2586 26.6119 31.6257 26.4421C34.8983 24.9279 38.4176 23.5103 42.1655 23.1681L40.9474 21.9499C40.6613 21.6639 40.6613 21.2002 40.9473 20.9142C41.2335 20.6281 41.6973 20.6283 41.983 20.9142L44.3735 23.3046C47.6295 26.5606 49.6081 30.7116 49.9447 34.9928C50.2846 39.3174 48.9132 43.2576 46.0832 46.0877C43.536 48.6343 40.0899 49.9999 36.274 49.9999ZM10.565 21.8176C10.7348 21.8176 10.9053 21.8763 11.0438 21.9961C12.5076 23.2625 14.3159 23.9227 16.1364 23.8542C18.0678 23.7819 19.9111 22.9213 21.4669 21.3654C23.0227 19.8096 23.8834 17.9664 23.9555 16.0351C24.0236 14.2149 23.3636 12.4062 22.0974 10.9423C21.9703 10.7954 21.9067 10.604 21.9208 10.4103C21.9349 10.2165 22.0252 10.0363 22.1722 9.90922C22.3897 9.72114 22.3937 9.39048 22.3768 9.21021C22.3394 8.81286 22.137 8.37585 21.8216 8.01121C21.1796 7.26904 20.3431 7.08867 19.9939 7.39091C19.688 7.65565 19.2254 7.62206 18.9608 7.31611C17.4582 5.57894 15.406 4.57808 13.1823 4.49771C12.5681 4.47554 11.9601 4.52359 11.3678 4.63872C11.0141 6.32423 10.2281 7.94783 9.13863 9.03717C8.85261 9.3232 8.38884 9.3233 8.10291 9.03717C7.81688 8.75114 7.81688 8.28738 8.10291 8.00145C8.82106 7.2833 9.38355 6.25597 9.72896 5.14515C8.75856 5.56292 7.85731 6.17541 7.06709 6.96573C5.39379 8.63903 4.51734 10.8106 4.59927 13.0803C4.67954 15.304 5.6805 17.3564 7.41767 18.8593C7.72362 19.124 7.75702 19.5865 7.49248 19.8924C7.19024 20.2417 7.3706 21.0783 8.11258 21.7202C8.47722 22.0356 8.91422 22.2381 9.31158 22.2755C9.49156 22.2925 9.82241 22.2886 10.0107 22.071C10.1556 21.9034 10.3597 21.8176 10.565 21.8176ZM8.40203 2.57011C8.48953 3.07234 8.48445 3.61813 8.3991 4.1609C8.93747 3.87155 9.4981 3.63561 10.0755 3.45534C10.1269 2.94461 10.1285 2.43993 10.0744 1.96133C9.4982 2.125 8.93942 2.32851 8.40203 2.57011ZM18.4484 21.1077C18.0439 21.1077 17.716 20.7798 17.716 20.3753C17.716 19.9708 18.0439 19.6429 18.4484 19.6429C19.1631 19.6429 19.7446 19.0615 19.7446 18.3468C19.7446 17.9423 20.0725 17.6143 20.477 17.6143C20.8815 17.6143 21.2094 17.9423 21.2094 18.3468C21.2094 19.8692 19.9708 21.1077 18.4484 21.1077ZM11.6551 19.9194C11.5474 19.9194 11.438 19.8956 11.3347 19.8452C10.9711 19.6679 10.82 19.2295 10.9973 18.8659C11.517 17.7999 12.8011 16.9345 13.9842 16.8527C14.3869 16.8249 14.7375 17.1294 14.7654 17.533C14.7932 17.9365 14.4886 18.2862 14.0851 18.3141C13.4296 18.3594 12.6019 18.9172 12.3141 19.5078C12.187 19.768 11.9263 19.9194 11.6551 19.9194ZM16.7466 18.643C16.7045 18.643 16.6618 18.6394 16.619 18.6319C16.2205 18.5619 15.9543 18.1822 16.0244 17.7838C16.1739 16.933 16.9283 16.1786 17.7791 16.0291C18.1772 15.9591 18.5572 16.2252 18.6272 16.6236C18.6972 17.0221 18.431 17.4018 18.0327 17.4719C17.7899 17.5145 17.5099 17.7947 17.4671 18.0375C17.4046 18.3927 17.0954 18.643 16.7466 18.643ZM17.8239 14.5272C17.8069 14.5272 17.7899 14.5266 17.7727 14.5254C17.3692 14.4976 17.0647 14.1479 17.0925 13.7443C17.1741 12.5611 18.0396 11.2771 19.1056 10.7574C19.4692 10.5802 19.9077 10.7313 20.0849 11.0948C20.2621 11.4585 20.1111 11.8969 19.7474 12.0741C19.1568 12.362 18.599 13.1896 18.5538 13.8451C18.5272 14.2316 18.2055 14.5272 17.8239 14.5272Z" fill="#252222"/>
</g>
<defs>
<clipPath id="clip0">
<rect width="50" height="50" fill="white"/>
</clipPath>
</defs>
</svg>
