<svg width="50" height="50" viewBox="0 0 50 50" fill="none" xmlns="http://www.w3.org/2000/svg">
<g clip-path="url(#clip0)">
<path d="M26.685 40.1055C26.6674 39.7011 26.3222 39.3864 25.9216 39.4051C25.5177 39.4222 25.2041 39.764 25.2216 40.1684L25.3437 43.0081C25.3689 43.5978 25.1579 44.1574 24.7498 44.5835C24.3416 45.0096 23.7923 45.2442 23.2021 45.2442H9.7374C9.14765 45.2442 8.59795 45.0096 8.18978 44.5835C7.7816 44.1574 7.57065 43.5978 7.59621 43.0081L8.49724 22.0928H24.4423L24.8154 30.7491C24.8322 31.1428 25.1564 31.4503 25.5463 31.4503C25.557 31.4503 25.5676 31.4499 25.5783 31.4495C25.9827 31.432 26.2962 31.0906 26.2787 30.6862L25.9018 21.9341C26.9295 21.5618 27.6661 20.5757 27.6661 19.421V18.6886C27.6661 17.2153 26.4675 16.0168 24.9943 16.0168H24.8615C24.4553 13.1233 22.5956 10.6468 19.883 9.45166C19.7361 9.38719 19.6453 9.24414 19.6522 9.08774C19.6899 8.19663 20.005 7.17162 20.5181 5.59118C20.723 4.96786 20.7806 4.31898 20.6898 3.66362C20.4102 1.65251 18.7332 0.114036 16.7019 0.0060802C15.5186 -0.0564809 14.3951 0.355888 13.5384 1.16842C12.6808 1.98171 12.2086 3.07997 12.2086 4.26138C12.2086 4.7138 12.2803 5.16127 12.4207 5.5889C12.9349 7.17162 13.2496 8.19701 13.2877 9.08774C13.2942 9.24414 13.2034 9.38681 13.0566 9.45166C12.5298 9.68398 12.0243 9.97161 11.5543 10.3065C11.2251 10.5415 11.1485 10.9989 11.3834 11.3281C11.618 11.6577 12.0758 11.734 12.405 11.4994C12.7934 11.2221 13.2114 10.9844 13.6475 10.7921C14.3505 10.4824 14.7835 9.78888 14.7511 9.02556C14.7053 7.94829 14.3665 6.83783 13.8134 5.13418C13.7203 4.8519 13.6734 4.55816 13.6734 4.26138C13.6734 3.48623 13.9835 2.76525 14.5462 2.23158C15.1085 1.69828 15.8463 1.42744 16.6241 1.46902C17.9348 1.53845 19.0586 2.5688 19.2387 3.86503C19.2989 4.29762 19.2612 4.72448 19.1258 5.13647C18.5734 6.83745 18.2346 7.94791 18.1885 9.02518C18.1561 9.78888 18.5894 10.4824 19.2925 10.7921C21.4722 11.7523 22.9862 13.7123 23.3791 16.0168H9.56116C9.72138 15.0879 10.0685 14.1968 10.5824 13.4037C10.8025 13.0646 10.7056 12.611 10.3661 12.3909C10.0266 12.1712 9.57299 12.2677 9.35326 12.6072C8.68569 13.6372 8.25081 14.8041 8.07877 16.0168H7.94525C6.47202 16.0168 5.27344 17.2153 5.27344 18.6886V19.421C5.27344 20.5757 6.01006 21.5618 7.03774 21.9341L6.13251 42.9451C6.08978 43.9377 6.44493 44.8796 7.13196 45.5967C7.81899 46.3139 8.74443 46.7091 9.7374 46.7091H23.2021C24.1951 46.7091 25.1206 46.3139 25.8076 45.5967C26.4946 44.8792 26.8498 43.9377 26.807 42.9451L26.685 40.1055ZM6.73828 18.6886C6.73828 18.0229 7.27959 17.4816 7.94525 17.4816H24.9943C25.66 17.4816 26.2013 18.0229 26.2013 18.6886V19.421C26.2013 20.0447 25.7259 20.5593 25.1183 20.6215C25.1164 20.6215 25.1141 20.6219 25.1122 20.6219C25.0931 20.6226 25.0748 20.6242 25.0561 20.6264C25.0359 20.6272 25.0153 20.628 24.9943 20.628H7.94525C7.92465 20.628 7.90405 20.6272 7.88345 20.6264C7.86514 20.6242 7.84645 20.6226 7.82738 20.6219C7.82547 20.6219 7.82356 20.6219 7.82128 20.6215C7.21359 20.5593 6.73828 20.0447 6.73828 19.421V18.6886Z" fill="#252222"/>
<path d="M12.5702 26.2848H10.812C10.4073 26.2848 10.0796 26.6125 10.0796 27.0172C10.0796 27.4216 10.4073 27.7496 10.812 27.7496H12.5702C12.9749 27.7496 13.3026 27.4216 13.3026 27.0172C13.3026 26.6125 12.9749 26.2848 12.5702 26.2848Z" fill="#252222"/>
<path d="M12.5702 30.3373H10.812C10.4073 30.3373 10.0796 30.665 10.0796 31.0697C10.0796 31.4741 10.4073 31.8021 10.812 31.8021H12.5702C12.9749 31.8021 13.3026 31.4741 13.3026 31.0697C13.3026 30.665 12.9749 30.3373 12.5702 30.3373Z" fill="#252222"/>
<path d="M12.5702 34.3893H10.812C10.4073 34.3893 10.0796 34.7173 10.0796 35.1217C10.0796 35.5264 10.4073 35.8541 10.812 35.8541H12.5702C12.9749 35.8541 13.3026 35.5264 13.3026 35.1217C13.3026 34.7173 12.9749 34.3893 12.5702 34.3893Z" fill="#252222"/>
<path d="M44.6335 35.3802C44.4309 34.8228 44.0235 34.3784 43.4864 34.1278C42.0807 33.4717 40.6563 32.954 39.2307 32.5809C39.1872 30.9627 38.3861 29.5303 37.1693 28.6262C38.3057 27.6386 38.9767 26.2005 38.9767 24.6494C38.9767 21.7399 36.61 19.3729 33.7013 19.3729C30.7922 19.3729 28.4256 21.7399 28.4256 24.6494C28.4256 26.2005 29.0966 27.6386 30.233 28.6262C29.0165 29.5303 28.215 30.9627 28.1719 32.5809C26.7456 32.9544 25.3212 33.472 23.9162 34.1278C23.3791 34.378 22.9717 34.8228 22.7688 35.3798C22.5658 35.9371 22.5925 36.5402 22.8435 37.0769C23.3597 38.1847 24.6826 38.6665 25.7931 38.1496C27.2968 37.4481 28.8044 36.9404 30.286 36.6356C30.7323 38.6753 30.5096 39.7835 29.1603 43.5474C29.1504 43.5749 29.1424 43.6024 29.1359 43.6298C28.9638 44.1334 28.8769 44.6533 28.8769 45.1767C28.8769 47.8363 31.0409 50 33.7009 50C35.2108 50 36.6535 49.2786 37.561 48.0709C37.804 47.747 37.7388 47.2881 37.4153 47.0451C37.0918 46.8021 36.6329 46.8674 36.3899 47.1908C35.7483 48.0453 34.7683 48.5352 33.7013 48.5352C31.8489 48.5352 30.3417 47.0287 30.3417 45.1767C30.3417 44.7945 30.4096 44.4134 30.5435 44.0441C30.553 44.0178 30.5607 43.9911 30.5672 43.964C31.9004 40.2386 32.2426 38.837 31.7322 36.4014C33.0414 36.2469 34.3613 36.2469 35.6705 36.4014C35.1597 38.8367 35.5019 40.2386 36.8351 43.9632C36.8416 43.9907 36.8496 44.0182 36.8595 44.0445C36.9614 44.3252 37.0254 44.6171 37.0506 44.9116C37.083 45.2938 37.4031 45.5822 37.7796 45.5822C37.8002 45.5822 37.8212 45.581 37.8422 45.5795C38.2454 45.5452 38.5445 45.1908 38.5101 44.7876C38.4766 44.3951 38.3949 44.0063 38.2667 43.631C38.2603 43.6027 38.2523 43.5753 38.2423 43.5478C36.8927 39.7835 36.6699 38.6753 37.1162 36.6356C38.5982 36.9404 40.1054 37.4481 41.6092 38.1496C41.9083 38.2893 42.2272 38.3594 42.5472 38.3594C42.8028 38.3594 43.0595 38.3144 43.3071 38.2244C43.8641 38.0218 44.3089 37.614 44.5587 37.0777C44.8097 36.5402 44.8364 35.9375 44.6335 35.3802ZM29.8908 24.6494C29.8908 22.5479 31.6002 20.8378 33.7013 20.8378C35.8025 20.8378 37.5118 22.5479 37.5118 24.6494C37.5118 25.9731 36.8351 27.1831 35.7269 27.8774C35.226 27.7126 34.6912 27.623 34.1358 27.623H33.2668C32.7114 27.623 32.1766 27.7122 31.6757 27.8774C30.5672 27.1831 29.8908 25.9731 29.8908 24.6494ZM33.2668 29.0878H34.1358C35.9768 29.0878 37.5027 30.4649 37.7365 32.243C37.5339 32.204 37.3318 32.1686 37.1296 32.1358C35.9924 31.9519 34.8389 31.8588 33.7013 31.8588C32.5638 31.8588 31.4102 31.9519 30.273 32.1358C30.0709 32.1686 29.8687 32.2044 29.6661 32.243C29.8996 30.4649 31.4255 29.0878 33.2668 29.0878ZM43.2312 36.4586C43.1465 36.6409 42.9955 36.779 42.8062 36.8481C42.6167 36.9167 42.4118 36.9076 42.2287 36.8221C40.3061 35.9253 38.3709 35.3233 36.4773 35.033C35.556 34.8911 34.6287 34.8202 33.7013 34.8202C32.774 34.8202 31.8466 34.8911 30.9257 35.033C29.0317 35.3233 27.0962 35.9253 25.1743 36.8217C24.7967 36.998 24.3465 36.8347 24.1707 36.4578C24.0856 36.2751 24.0764 36.0699 24.1455 35.8807C24.2142 35.6914 24.3526 35.5404 24.5353 35.4553C26.0288 34.758 27.5425 34.2274 29.0527 33.8711C29.0649 33.8688 29.0768 33.8657 29.0886 33.8627C29.562 33.752 30.035 33.6582 30.5069 33.5819C31.5666 33.4106 32.6416 33.3237 33.7013 33.3237C34.761 33.3237 35.8356 33.4106 36.8954 33.5819C37.3665 33.6582 37.8384 33.7517 38.311 33.8623C38.3247 33.8657 38.3388 33.8692 38.353 33.8722C39.8617 34.2281 41.3742 34.7584 42.8669 35.4553C42.8673 35.4557 42.8673 35.4557 42.8677 35.4557C43.0496 35.5408 43.1881 35.6914 43.2568 35.881C43.3258 36.0702 43.317 36.2751 43.2312 36.4586Z" fill="#252222"/>
</g>
<defs>
<clipPath id="clip0">
<rect width="50" height="50" fill="white"/>
</clipPath>
</defs>
</svg>
