<svg width="50" height="50" viewBox="0 0 50 50" fill="none" xmlns="http://www.w3.org/2000/svg">
<g clip-path="url(#clip0)">
<path d="M35.8333 25H17.5C16.1193 25 15 26.1193 15 27.5V44.1667C15 45.5474 16.1193 46.6667 17.5 46.6667H35.8333C37.214 46.6667 38.3333 45.5474 38.3333 44.1667V27.5C38.3333 26.1193 37.214 25 35.8333 25ZM36.6667 44.1667C36.6667 44.6269 36.2936 45 35.8333 45H17.5C17.0398 45 16.6667 44.6269 16.6667 44.1667V27.5C16.6667 27.0398 17.0398 26.6667 17.5 26.6667H35.8333C36.2936 26.6667 36.6667 27.0398 36.6667 27.5V44.1667Z" fill="#252222"/>
<path d="M12.4998 35.8329C12.4998 33.5317 10.6344 31.6663 8.33317 31.6663C6.03198 31.6663 4.1665 33.5317 4.1665 35.8329C4.1665 38.1341 6.03198 39.9996 8.33317 39.9996C10.6332 39.9968 12.4971 38.133 12.4998 35.8329ZM8.33317 38.3329C6.95246 38.3329 5.83317 37.2136 5.83317 35.8329C5.83317 34.4522 6.95246 33.3329 8.33317 33.3329C9.71388 33.3329 10.8332 34.4522 10.8332 35.8329C10.8332 37.2136 9.71388 38.3329 8.33317 38.3329Z" fill="#252222"/>
<path d="M4.16683 29.9995H6.66683C7.12706 29.9995 7.50016 29.6264 7.50016 29.1662C7.50016 28.706 7.12706 28.3329 6.66683 28.3329H4.16683C3.70659 28.3329 3.3335 28.706 3.3335 29.1662C3.3335 29.6264 3.70659 29.9995 4.16683 29.9995Z" fill="#252222"/>
<path d="M12.4998 28.3329H9.99984C9.5396 28.3329 9.1665 28.706 9.1665 29.1662C9.1665 29.6264 9.5396 29.9995 9.99984 29.9995H12.4998C12.9601 29.9995 13.3332 29.6264 13.3332 29.1662C13.3332 28.706 12.9601 28.3329 12.4998 28.3329Z" fill="#252222"/>
<path d="M4.16683 26.6667H6.66683C7.12706 26.6667 7.50016 26.2936 7.50016 25.8333C7.50016 25.3731 7.12706 25 6.66683 25H4.16683C3.70659 25 3.3335 25.3731 3.3335 25.8333C3.3335 26.2936 3.70659 26.6667 4.16683 26.6667Z" fill="#252222"/>
<path d="M12.4998 25H9.99984C9.5396 25 9.1665 25.3731 9.1665 25.8333C9.1665 26.2936 9.5396 26.6667 9.99984 26.6667H12.4998C12.9601 26.6667 13.3332 26.2936 13.3332 25.8333C13.3332 25.3731 12.9601 25 12.4998 25Z" fill="#252222"/>
<path d="M6.66683 44.9998H4.16683C3.70659 44.9998 3.3335 45.3728 3.3335 45.8331C3.3335 46.2933 3.70659 46.6664 4.16683 46.6664H6.66683C7.12706 46.6664 7.50016 46.2933 7.50016 45.8331C7.50016 45.3728 7.12706 44.9998 6.66683 44.9998Z" fill="#252222"/>
<path d="M12.4998 44.9998H9.99984C9.5396 44.9998 9.1665 45.3728 9.1665 45.8331C9.1665 46.2933 9.5396 46.6664 9.99984 46.6664H12.4998C12.9601 46.6664 13.3332 46.2933 13.3332 45.8331C13.3332 45.3728 12.9601 44.9998 12.4998 44.9998Z" fill="#252222"/>
<path d="M6.66683 41.6664H4.16683C3.70659 41.6664 3.3335 42.0395 3.3335 42.4997C3.3335 42.9599 3.70659 43.333 4.16683 43.333H6.66683C7.12706 43.333 7.50016 42.9599 7.50016 42.4997C7.50016 42.0395 7.12706 41.6664 6.66683 41.6664Z" fill="#252222"/>
<path d="M12.4998 41.6664H9.99984C9.5396 41.6664 9.1665 42.0395 9.1665 42.4997C9.1665 42.9599 9.5396 43.333 9.99984 43.333H12.4998C12.9601 43.333 13.3332 42.9599 13.3332 42.4997C13.3332 42.0395 12.9601 41.6664 12.4998 41.6664Z" fill="#252222"/>
<path d="M29.8332 31.1666C29.6699 30.9563 29.4226 30.8281 29.1566 30.8158C28.8922 30.8164 28.6455 30.9489 28.4991 31.1691C28.4941 31.1741 28.0616 31.6691 26.6657 31.6691C26.0135 31.7505 25.3554 31.5731 24.8324 31.175C24.6819 30.9686 24.4451 30.8427 24.1899 30.8333C23.9178 30.8178 23.6569 30.9438 23.4999 31.1666L18.4999 37.8333C18.3104 38.0857 18.2798 38.4234 18.4207 38.7058C18.4999 38.8608 20.3907 42.5 26.6666 42.5C32.9424 42.5 34.8333 38.8608 34.9166 38.7058C35.0563 38.4227 35.0241 38.0849 34.8332 37.8333L29.8332 31.1666ZM26.6666 40.8333C22.6232 40.8333 20.8149 39.155 20.1866 38.3625L24.3282 32.84C25.0558 33.1927 25.8586 33.362 26.6666 33.3333C27.4746 33.362 28.2774 33.1927 29.0049 32.84L33.1466 38.3625C32.5141 39.1591 30.7049 40.8333 26.6666 40.8333Z" fill="#252222"/>
<path d="M24.9998 4.16638C23.1589 4.16638 21.6665 5.65877 21.6665 7.49972C21.6665 9.34066 23.1589 10.833 24.9998 10.833C26.8408 10.833 28.3332 9.34066 28.3332 7.49972C28.3332 6.61566 27.982 5.76781 27.3569 5.14269C26.7317 4.51757 25.8839 4.16638 24.9998 4.16638ZM24.9998 9.16638C24.0794 9.16638 23.3332 8.42019 23.3332 7.49972C23.3332 6.57924 24.0794 5.83305 24.9998 5.83305C25.9203 5.83305 26.6665 6.57924 26.6665 7.49972C26.6665 8.42019 25.9203 9.16638 24.9998 9.16638Z" fill="#252222"/>
<path d="M12.4998 4.16638C12.0396 4.16638 11.6665 4.53948 11.6665 4.99972V9.99972C11.6665 10.46 12.0396 10.833 12.4998 10.833C12.9601 10.833 13.3332 10.46 13.3332 9.99972V4.99972C13.3332 4.53948 12.9601 4.16638 12.4998 4.16638Z" fill="#252222"/>
<path d="M45.8333 6.66649H40C40 5.28578 38.8807 4.16649 37.5 4.16649H36.4225C35.8799 2.4076 34.4069 1.09446 32.5975 0.756491C29.2604 0.208125 25.8815 -0.0450766 22.5 -0.000175401C14.6058 -0.000175401 10.7433 1.04399 9.44917 1.49316C8.97849 1.65955 8.60801 2.02942 8.44083 2.49982H5C4.38141 2.50301 3.81547 2.84854 3.53 3.39732C1.50119 3.7042 0.00137969 5.44794 0.00137969 7.49983C0.00137969 9.55171 1.50119 11.2954 3.53 11.6023C3.81547 12.1511 4.38141 12.4966 5 12.4998H8.44083C8.60801 12.9702 8.97849 13.3401 9.44917 13.5065C10.7433 13.9557 14.6058 14.9998 22.5 14.9998C25.8816 15.0449 29.2605 14.7914 32.5975 14.2423C34.407 13.905 35.8801 12.592 36.4225 10.8332H37.5C38.8807 10.8332 40 9.71387 40 8.33316H45.8333C47.214 8.33316 48.3333 9.45245 48.3333 10.8332V39.1665C48.3285 40.2929 47.571 41.277 46.4833 41.5698C46.1038 40.6228 45.1869 40.0014 44.1667 39.9998H41.6667V25.8332C41.6639 23.5331 39.8 21.6692 37.5 21.6665H4.16667C1.86662 21.6692 0.0027551 23.5331 0 25.8332V45.8332C0.0027551 48.1332 1.86662 49.9971 4.16667 49.9998H37.5C39.8 49.9971 41.6639 48.1332 41.6667 45.8332V44.9998H44.1667C45.2496 44.9962 46.2065 44.2942 46.535 43.2623C48.5322 42.9211 49.9945 41.1926 50 39.1665V10.8332C49.9972 8.53311 48.1334 6.66925 45.8333 6.66649ZM1.66667 7.49983C1.66796 6.44067 2.33525 5.49679 3.33333 5.14232V9.85733C2.33525 9.50286 1.66796 8.55898 1.66667 7.49983ZM5 4.16649H8.33333V10.8332H5V4.16649ZM35 9.33316C35.0082 10.934 33.8709 12.3119 32.2975 12.6073C29.0594 13.1369 25.7808 13.3798 22.5 13.3332C14.8592 13.3332 11.21 12.3532 10 11.9323V11.6665V3.33316C10 3.32566 10 3.31899 10 3.31149V3.06816C11.21 2.64649 14.8592 1.66649 22.5 1.66649C25.7809 1.62143 29.0594 1.86542 32.2975 2.39566C33.8708 2.69177 35.0079 4.06973 35 5.67066V9.33316ZM38.3333 8.33316C38.3333 8.7934 37.9602 9.16649 37.5 9.16649H36.6667V5.83316H37.5C37.9602 5.83316 38.3333 6.20625 38.3333 6.66649V8.33316ZM40 45.8332C40 47.2139 38.8807 48.3332 37.5 48.3332H4.16667C2.78595 48.3332 1.66667 47.2139 1.66667 45.8332V25.8332C1.66667 24.4524 2.78595 23.3332 4.16667 23.3332H37.5C38.8807 23.3332 40 24.4524 40 25.8332V45.8332ZM44.1667 43.3332H41.6667V41.6665H44.1667C44.6269 41.6665 45 42.0396 45 42.4998C45 42.9601 44.6269 43.3332 44.1667 43.3332Z" fill="#252222"/>
</g>
<defs>
<clipPath id="clip0">
<rect width="50" height="50" fill="white"/>
</clipPath>
</defs>
</svg>
