<svg width="50" height="50" viewBox="0 0 50 50" fill="none" xmlns="http://www.w3.org/2000/svg">
<g clip-path="url(#clip0)">
<path d="M14.7382 42.5274C13.8615 44.634 13.385 46.8854 13.3332 49.1666C13.3332 49.6268 13.7063 49.9999 14.1665 49.9999H39.1665C39.4115 49.9998 39.6441 49.8919 39.8023 49.7049C39.9606 49.5179 40.0286 49.2707 39.9882 49.0291C39.9198 48.6124 38.2632 38.8291 34.9123 32.1282C34.146 30.4298 33.7565 28.5856 33.7707 26.7224C35.5337 27.0737 37.3139 27.3324 39.104 27.4974L39.1665 27.4999C39.5487 27.4999 39.882 27.2398 39.9748 26.8691C41.3173 21.5016 41.074 14.0699 40.9132 9.15239C40.8707 7.84406 40.8298 6.70905 40.8298 5.85239C40.8275 4.2095 40.1869 2.63181 39.0432 1.45239C38.2046 0.54241 37.0288 0.0171922 35.7915 -0.00011173H25.9723C25.0959 -0.00263512 24.283 0.456862 23.8332 1.20905C22.7271 3.10307 21.2244 4.7354 19.4282 5.99406C18.9868 6.28575 18.5165 6.53121 18.0248 6.72655C16.0424 7.49965 14.7806 9.45852 14.8965 11.5832C14.953 13.1583 15.6404 14.6444 16.804 15.7074C16.6297 15.7695 16.4594 15.8421 16.294 15.9249C15.2717 16.4182 14.5271 17.3472 14.2682 18.4524C10.4053 20.9976 8.15426 25.3773 8.33316 29.9999C8.33316 36.9166 11.6707 40.6007 14.7382 42.5274ZM25.2582 2.07156C25.4086 1.82052 25.6797 1.66679 25.9723 1.66656H29.944C29.7707 3.28072 29.0273 6.66656 25.8332 6.66656C24.4746 6.66589 23.1192 6.53727 21.7848 6.28239C23.1444 5.05824 24.315 3.63919 25.2582 2.07156ZM16.5623 11.5266C16.4673 10.1054 17.3088 8.78797 18.6382 8.27656C19.1117 8.08326 19.5685 7.85137 20.004 7.58322C21.9085 8.08118 23.8688 8.33323 25.8373 8.33322C29.9965 8.33322 31.3932 4.35239 31.629 1.66656H33.1215C31.7898 7.1624 31.52 12.862 32.3265 18.4591C31.0367 18.2102 29.7315 18.0496 28.4198 17.9782C27.3564 17.9467 26.2994 17.8006 25.2673 17.5424C24.5673 17.3091 23.8507 17.0149 23.164 16.7307C22.0808 16.2424 20.9546 15.8557 19.7998 15.5757C17.9743 15.0444 16.6789 13.4242 16.5623 11.5266ZM17.039 17.4124C17.758 17.0805 18.5673 16.9987 19.3382 17.1799C19.4065 17.2026 19.4773 17.2168 19.549 17.2224C20.5684 17.4879 21.5636 17.8389 22.524 18.2716C23.2407 18.5666 23.9815 18.8724 24.7365 19.1241C25.8979 19.4313 27.0907 19.6044 28.2915 19.6399C30.6657 19.8174 33.3582 20.0182 35.3332 21.4999C35.5713 21.6785 35.8867 21.7165 36.1605 21.5996C36.4343 21.4826 36.6249 21.2285 36.6605 20.9329C36.6961 20.6373 36.5713 20.3452 36.3332 20.1666C35.6511 19.6665 34.9006 19.2671 34.1048 18.9807C33.1434 13.2216 33.3897 7.32544 34.8282 1.66656H35.7915C36.5795 1.6916 37.3238 2.0346 37.8548 2.61739C38.6823 3.48533 39.1509 4.63414 39.1665 5.83322C39.1665 6.72322 39.204 7.87739 39.2498 9.20656C39.4007 13.8166 39.6248 20.6774 38.524 25.7641C35.9998 25.4816 27.2173 24.2499 19.6582 20.1524C18.6336 19.2482 17.3776 18.6471 16.0307 18.4166C16.2434 17.9784 16.5991 17.6257 17.039 17.4166V17.4124ZM14.9873 19.9999H14.9998C16.323 20.036 17.5906 20.54 18.5773 21.4224C18.6338 21.4785 18.6977 21.5264 18.7673 21.5649C22.9641 23.771 27.4449 25.3885 32.0832 26.3716C32.0291 28.6113 32.485 30.834 33.4165 32.8716C36.0607 38.1516 37.6573 45.6791 38.1665 48.3332H15.0423C15.1705 46.6163 15.5641 44.9296 16.209 43.3332C18.7907 44.5338 21.6069 45.1457 24.454 45.1249C25.2252 45.1249 25.9959 45.0821 26.7623 44.9966C27.0583 44.9635 27.3141 44.7751 27.4334 44.5023C27.5528 44.2295 27.5175 43.9137 27.3409 43.674C27.1644 43.4342 26.8733 43.3068 26.5773 43.3399C23.0175 43.7794 19.408 43.1288 16.2257 41.4741C13.384 39.8907 9.99983 36.6174 9.99983 29.9999C9.99983 25.6607 11.6907 22.3074 14.9873 19.9999Z" fill="#252222"/>
<path d="M17.1181 36.863C17.5915 37.258 18.0948 37.6789 18.624 38.1322C18.9358 38.399 19.3955 38.399 19.7073 38.1322C20.2365 37.6789 20.7398 37.258 21.2131 36.863C23.9998 34.5414 25.8331 33.008 25.8331 30.6314C25.872 29.6055 25.4964 28.6071 24.791 27.8612C24.0856 27.1153 23.1096 26.6847 22.0831 26.6664C20.9797 26.6649 19.9245 27.1186 19.1665 27.9206C18.4085 27.1186 17.3533 26.6649 16.2498 26.6664C15.2233 26.6847 14.2474 27.1153 13.542 27.8612C12.8365 28.6071 12.4609 29.6055 12.4998 30.6314C12.4998 33.008 14.3331 34.5414 17.1181 36.863ZM16.2498 28.3331C17.1609 28.3648 17.9873 28.8757 18.4231 29.6764C18.565 29.9539 18.8498 30.1292 19.1615 30.1306H19.1665C19.479 30.1293 19.7649 29.9542 19.9081 29.6764C20.3441 28.8751 21.1714 28.3641 22.0831 28.3331C22.6683 28.35 23.2212 28.6048 23.6143 29.0385C24.0075 29.4722 24.2069 30.0474 24.1665 30.6314C24.1665 32.228 22.654 33.4914 20.1473 35.5839C19.8331 35.8464 19.5056 36.1189 19.1665 36.4055C18.8273 36.1189 18.4998 35.8464 18.1856 35.5839C15.679 33.4914 14.1665 32.228 14.1665 30.6314C14.1261 30.0474 14.3255 29.4722 14.7186 29.0385C15.1118 28.6048 15.6647 28.35 16.2498 28.3331Z" fill="#252222"/>
</g>
<defs>
<clipPath id="clip0">
<rect width="50" height="50" fill="white"/>
</clipPath>
</defs>
</svg>
