<svg width="50" height="50" viewBox="0 0 50 50" fill="none" xmlns="http://www.w3.org/2000/svg">
<g clip-path="url(#clip0)">
<path d="M40.4605 50H26.1626C25.7581 50 25.4302 49.6721 25.4302 49.2676C25.4302 48.8631 25.7581 48.5352 26.1626 48.5352H39.6443L39.0439 42.9924C37.9667 43.2219 35.8235 43.5583 32.5232 43.5583C26.1474 43.5583 20.8646 41.3116 18.8694 39.8014C18.8173 39.7619 18.7668 39.7206 18.7181 39.6776L16.1395 48.5352H23.2329C23.6374 48.5352 23.9653 48.8631 23.9653 49.2676C23.9653 49.6721 23.6374 50 23.2329 50H15.1634C14.9329 50 14.7158 49.8915 14.5775 49.7071C14.4393 49.5228 14.3957 49.2841 14.4602 49.0628L17.7555 37.7433C17.4716 37.1959 16.8093 35.8691 16.1403 34.1736C14.9652 31.1951 14.3693 28.6273 14.3693 26.5417C14.3693 24.4364 14.8704 22.749 15.3551 21.1171C15.8007 19.6164 16.2217 18.1989 16.2217 16.5438C16.2217 16.2242 16.19 15.925 16.133 15.6394C15.0963 16.021 13.9745 16.2119 12.8677 16.0515C10.5146 15.7104 8.80664 13.7831 8.80664 11.4688C8.80664 10.2104 9.29844 9.05752 10.1913 8.22275C11.0121 7.45537 12.1039 7.02852 13.3076 6.99512C13.491 4.78779 14.4845 2.98369 16.2084 1.74629C17.7772 0.620313 19.9242 0 22.2536 0C23.1917 0 24.1037 0.0882813 24.9644 0.262402C25.3608 0.342578 25.6173 0.729004 25.537 1.12549C25.4567 1.52197 25.0704 1.77842 24.6739 1.69814C23.9087 1.54336 23.0944 1.46484 22.2536 1.46484C20.2281 1.46484 18.3845 1.9875 17.0625 2.93643C15.5224 4.04199 14.7414 5.66348 14.7414 7.75576C14.7414 9.73027 15.4665 10.9732 16.2343 12.2893C16.4861 12.721 16.741 13.158 16.9655 13.6202C17.4394 13.3402 17.8577 13.0368 18.1937 12.7572C18.0145 12.334 17.9162 11.8616 17.9162 11.357C17.9162 10.0223 18.9646 8.93633 20.2534 8.93633C20.7188 8.93633 21.1657 9.07959 21.5429 9.33789C23.0046 7.6126 23.3399 6.07607 23.3435 6.05918C23.4145 5.71963 23.7146 5.47334 24.061 5.47334H24.0705C24.2732 5.47334 27.6559 5.43711 27.9332 3.12852C27.7144 2.94863 27.4751 2.78203 27.2157 2.629C26.8674 2.42354 26.7516 1.97441 26.9571 1.62598C27.1626 1.27754 27.6118 1.16182 27.9602 1.36738C29.8398 2.47627 31.8807 4.76904 30.9285 9.39404C30.8031 10.0035 30.7908 10.3929 30.886 10.738C30.9908 11.1178 31.2473 11.3976 31.5188 11.6938C31.8792 12.087 32.2878 12.5329 32.2878 13.2099C32.2878 13.9746 31.7149 14.8045 30.6414 15.0619C29.959 17.9679 29.0406 20.6678 26.7112 20.6678C25.8506 20.6678 24.9412 20.4665 24.1568 20.2236V22.6633L27.2939 24.2409C27.6554 24.4227 27.801 24.8629 27.6192 25.2243C27.4376 25.5857 26.9973 25.7313 26.6358 25.5496L24.6324 24.5421C24.6408 24.6402 24.6452 24.7395 24.6452 24.8398V29.7938C24.6452 30.1982 24.3173 30.5262 23.9128 30.5262C23.5083 30.5262 23.1804 30.1982 23.1804 29.7938V24.8398C23.1804 23.754 22.2971 22.8707 21.2112 22.8707H19.0954C18.6909 22.8707 18.363 22.5428 18.363 22.1383C18.363 21.7338 18.6909 21.4059 19.0954 21.4059H21.211C21.741 21.4059 22.2433 21.5265 22.6919 21.7418V19.6808C22.324 19.5222 22.0912 19.4041 22.061 19.3888C21.7009 19.2045 21.5583 18.7633 21.7425 18.4031C21.9268 18.043 22.3679 17.9005 22.7279 18.0846C22.7648 18.1032 24.9486 19.2031 26.7111 19.2031C27.5625 19.2031 28.1642 18.2035 28.6402 16.7997C27.9441 16.6274 27.2056 16.2584 26.743 15.6114C26.5077 15.2823 26.5838 14.8249 26.9128 14.5896C27.2419 14.3545 27.6993 14.4305 27.9346 14.7595C28.1704 15.0894 28.6163 15.2975 29.0511 15.3936C29.1468 15.0207 29.2378 14.636 29.3257 14.2469C29.3986 13.924 29.6789 13.6902 30.0096 13.6764C30.3935 13.6604 30.8228 13.4576 30.8228 13.2103C30.8228 13.1029 30.6187 12.8804 30.4386 12.6838C30.0973 12.3113 29.6725 11.8479 29.4738 11.128C29.342 10.6505 29.323 10.1539 29.4179 9.5209C28.9947 9.23311 28.2351 9.00049 27.1461 9.07178C26.7418 9.09824 26.3938 8.79248 26.3673 8.38887C26.3408 7.98525 26.6466 7.63652 27.0502 7.61006C28.0464 7.54473 28.9467 7.68076 29.6634 7.99199C29.7984 6.60273 29.5957 5.42393 29.0576 4.4624C28.226 6.17539 26.1208 6.80146 24.618 6.91768C24.3445 7.72949 23.6604 9.29697 22.1049 10.8965C22.0557 10.9487 21.9985 10.994 21.935 11.0304C21.618 11.2114 21.2156 11.1316 20.9922 10.8429C20.978 10.8246 20.9649 10.806 20.9528 10.7868C20.788 10.5451 20.5274 10.4014 20.2531 10.4014C19.7721 10.4014 19.3808 10.8302 19.3808 11.3572C19.3808 12.5097 20.1825 13.3146 21.3306 13.3146C21.7351 13.3146 22.063 13.6425 22.063 14.047C22.063 14.4515 21.7351 14.7794 21.3306 14.7794C20.4394 14.7794 19.6484 14.4711 19.0528 13.9494C18.5976 14.3233 18.069 14.6901 17.4908 15.0123C17.6132 15.4829 17.6862 15.9889 17.6862 16.5441C17.6862 18.412 17.2148 19.9993 16.759 21.5344C16.3042 23.0659 15.8339 24.6496 15.8339 26.5419C15.8339 27.3614 15.9409 28.232 16.1168 29.1095H17.8088V28.3557C17.8088 27.9512 18.1367 27.6232 18.5412 27.6232C18.9457 27.6232 19.2736 27.9512 19.2736 28.3557V37.6635C19.2736 38.0437 19.4528 38.4062 19.7531 38.6335C21.5205 39.9712 26.5503 42.0936 32.5229 42.0936C35.8664 42.0936 37.9272 41.7438 38.8661 41.5325C38.7188 40.6668 38.4628 39.8308 38.1092 39.0474L34.6483 38.1629C33.2 37.7926 31.6884 38.4504 30.9719 39.7621C30.8769 39.936 30.7155 40.064 30.5246 40.1169C30.3336 40.1698 30.1295 40.1431 29.9585 40.0428L23.5417 36.2786C23.3176 36.1471 23.1799 35.9067 23.1799 35.6469V32.7236C23.1799 32.3191 23.5078 31.9912 23.9123 31.9912C24.3168 31.9912 24.6447 32.3191 24.6447 32.7236V35.2273L30.1 38.4274C31.2397 36.9559 33.1612 36.2709 35.011 36.7436L37.0708 37.27C36.8067 36.9119 36.5182 36.573 36.2066 36.257C34.6739 34.7021 32.7125 33.8458 30.6837 33.8458C30.3541 33.8458 30.065 33.6256 29.9775 33.3077C29.89 32.9898 30.0257 32.6527 30.3089 32.4841C30.3668 32.4487 31.8062 31.5507 31.8062 29.8769C31.8062 28.6666 31.0321 27.7609 29.218 26.8487C28.8566 26.667 28.7109 26.2267 28.8927 25.8653C29.0744 25.504 29.5146 25.3584 29.8761 25.54C31.3334 26.2729 33.271 27.5198 33.271 29.877C33.271 31.0169 32.8364 31.9058 32.3522 32.5424C34.1627 32.8953 35.8601 33.8189 37.2499 35.2288C39.0075 37.0118 40.1294 39.4157 40.4092 41.9977L41.1883 49.189C41.2106 49.3957 41.144 49.6022 41.0052 49.757C40.8663 49.9118 40.6684 50 40.4605 50ZM16.4685 30.5743C16.8474 31.946 17.3442 33.2737 17.8091 34.382V30.5743H16.4685ZM13.304 8.46123C12.4763 8.49395 11.7379 8.78232 11.1917 9.29297C10.5982 9.84775 10.2715 10.6206 10.2715 11.469C10.2715 13.0742 11.4255 14.3624 13.0778 14.602C13.9479 14.7278 14.8335 14.5621 15.6471 14.2571C15.4494 13.8509 15.2154 13.4496 14.969 13.0273C14.2571 11.8073 13.4603 10.4412 13.304 8.46123ZM27.3732 12.4713C26.7093 12.4713 26.0426 12.1934 25.5827 11.6952C25.3083 11.398 25.3269 10.9346 25.624 10.6603C25.9212 10.3859 26.3847 10.4044 26.659 10.7016C26.8938 10.956 27.2947 11.0696 27.6123 10.972C27.9989 10.8529 28.4088 11.0698 28.5278 11.4564C28.6469 11.843 28.43 12.2529 28.0434 12.372C27.826 12.4389 27.5998 12.4713 27.3732 12.4713Z" fill="#252222"/>
</g>
<defs>
<clipPath id="clip0">
<rect width="50" height="50" fill="white"/>
</clipPath>
</defs>
</svg>
