<svg width="34" height="25" viewBox="0 0 34 25" fill="none" xmlns="http://www.w3.org/2000/svg">
<path d="M6.77656 0C9.03541 0 10.8364 0.824174 12.1795 2.47252C13.5836 4.05983 14.2857 6.16605 14.2857 8.79121C14.2857 12.21 13.2784 15.4151 11.2637 18.4066C9.24909 21.337 6.74603 23.5348 3.75458 25L3.20513 23.9011C4.48718 22.9243 5.61661 21.6728 6.59341 20.1465C7.57021 18.6203 8.27228 16.7277 8.69963 14.4689L6.77656 14.011C4.63981 13.5226 2.96093 12.6374 1.73993 11.3553C0.579976 10.0122 0 8.42491 0 6.5934C0 4.6398 0.641026 3.0525 1.92308 1.8315C3.26618 0.6105 4.88401 0 6.77656 0ZM26.0989 0C28.3578 0 30.1587 0.824174 31.5018 2.47252C32.906 4.05983 33.6081 6.16605 33.6081 8.79121C33.6081 12.21 32.6007 15.4151 30.5861 18.4066C28.5714 21.337 26.0684 23.5348 23.0769 25L22.5275 23.9011C23.8095 22.9243 24.939 21.6728 25.9158 20.1465C26.8926 18.6203 27.5946 16.7277 28.022 14.4689L26.0989 14.011C23.9622 13.5226 22.2833 12.6374 21.0623 11.3553C19.9023 10.0122 19.3223 8.42491 19.3223 6.5934C19.3223 4.6398 19.9634 3.0525 21.2454 1.8315C22.5885 0.6105 24.2064 0 26.0989 0Z" fill="#476ECF"/>
</svg>
